<?xml version="1.0" encoding="utf-8"?>
<!-- Generator: Adobe Illustrator 20.1.0, SVG Export Plug-In . SVG Version: 6.00 Build 0)  -->
<svg version="1.1" id="Layer_4" xmlns="http://www.w3.org/2000/svg" xmlns:xlink="http://www.w3.org/1999/xlink" x="0px" y="0px"
	 viewBox="0 0 691.4 448" style="enable-background:new 0 0 691.4 448;" xml:space="preserve">
<style type="text/css">
	.st0{fill:#C92F2F;}
	.st1{fill:#E53935;}
	.st2{fill:#43A047;}
	.st3{fill:#387C38;}
	.st4{fill:#FDD835;}
	.st5{fill:#E2C137;}
	.st6{fill:#1E88E5;}
	.st7{fill:#1F84C1;}
	.st8{fill:#36474F;}
</style>
<g id="Camada_3">
</g>
<g>
	<path class="st0" d="M130.3,167c1-10.3,7.6-18.5,16-20.5c9.6-2.3,20.6,3.6,20.7,8.2c0.1,5.4-14.7,10.6-25.2,12
		C137.1,167.3,133.1,167.2,130.3,167z"/>
	<path class="st0" d="M185.9,127c0.4-10.4,6.5-18.9,14.8-21.4c9.4-2.8,20.7,2.4,21.1,7c0.4,5.4-14.1,11.4-24.4,13.4
		C192.7,126.9,188.7,127,185.9,127z"/>
	<g>
		<path class="st1" d="M150.2,147.6c-7.5-1.5-14.1-5.6-18.8-11.3c-2.4-2.9-4.2-6.1-5.5-9.6c-1.3-3.5-2-7.3-2-11.3
			c0-4.6,0.9-8.9,2.6-12.8c2.5-5.9,6.7-11,12-14.5c5.3-3.6,11.6-5.6,18.4-5.6c4.6,0,8.9,0.9,12.8,2.6c5.9,2.5,11,6.7,14.5,12
			c3.6,5.3,5.6,11.6,5.6,18.4h25c0-8-1.6-15.6-4.6-22.6c-4.4-10.4-11.7-19.3-21-25.5c-9.2-6.3-20.5-9.9-32.4-9.9
			c-8,0-15.6,1.6-22.6,4.6c-10.4,4.4-19.3,11.7-25.5,21c-6.3,9.2-9.9,20.5-9.9,32.4c0,7,1.2,13.7,3.5,19.9
			c3.4,9.3,9.2,17.5,16.5,23.9c7.4,6.4,16.4,10.9,26.3,13L150.2,147.6L150.2,147.6z"/>
	</g>
	<g>
		<path class="st2" d="M125.2,254c0.4-4.4,1-8.7,1.8-13c2.7-15.3,7.8-30,14.6-43.5c5.1-10.1,11.2-19.5,18-27.9
			c10.2-12.6,22-22.7,34.3-29.7c6.2-3.5,12.5-6.1,18.8-7.9c6.3-1.8,12.7-2.7,19-2.7c5.4,0,10.7,0.7,16.1,2.1
			c8.1,2.1,16.2,5.9,24.3,11.8c8.1,5.9,16.2,13.9,24,24.5l20.1-14.9c-12.2-16.5-25.7-28.6-40.1-36.7c-7.2-4-14.6-7-22-8.9
			c-7.5-2-15-2.9-22.4-2.9c-15.6,0-30.8,4.1-44.8,11.1c-10.5,5.3-20.4,12.2-29.6,20.4c-13.7,12.3-25.5,27.6-34.9,44.7
			c-9.4,17.1-16.3,36.1-19.9,56.1c-0.9,5-1.6,10.1-2.1,15.2L125.2,254L125.2,254z"/>
	</g>
	<path class="st3" d="M159.5,169.6c0,0,12.4-17.1,34.3-29.7c4.2-2.4,10.6-5.6,18.8-7.9c6.3-1.8,12.7-2.7,19-2.7
		c5.4,0,10.7,0.7,16.1,2.1c8.1,2.1,16.2,5.9,24.3,11.8c8.1,5.9,16.2,13.9,24,24.5l20.1-14.9c-12.2-16.5-25.7-28.6-40.1-36.7
		c-7.2-4-14.6-7-22-8.9c-4.2-1.1-7.8-1.7-9-1.9c0,0-6.8-1.7-13.4-1C186.6,108.6,159.5,169.6,159.5,169.6z"/>
	<g>
		<path class="st2" d="M607.6,253.6c-1.6-19.8-6.7-39-14.5-56.7c-5.9-13.2-13.3-25.6-21.8-36.8c-12.9-16.8-28.5-30.9-46-40.9
			c-8.7-5-17.9-9-27.5-11.7c-9.5-2.7-19.4-4.2-29.4-4.2c-12,0-24.3,2.1-36.2,6.7c-12,4.5-23.7,11.5-34.8,20.9l16.2,19.1
			c9.1-7.7,18.3-13.1,27.5-16.6c9.2-3.5,18.3-5.1,27.4-5.1c13.4,0,26.9,3.5,39.7,10c9.6,4.9,18.9,11.5,27.4,19.4
			c12.8,11.9,23.9,26.9,32.1,43.7c8.2,16.8,13.6,35.3,15.1,54.2L607.6,253.6L607.6,253.6z"/>
	</g>
	<g>
		<path class="st3" d="M508.6,138.6c9.6,4.9,18.9,11.5,27.4,19.4c12.8,11.9,23.9,26.9,32.1,43.7c8.2,16.8,13.6,35.3,15.1,54.2
			l24.9-2l0,0c-3.7-19.6,1.3-13.5-13.3-35.3C550.1,152,508.6,138.6,508.6,138.6z"/>
	</g>
	<g>
		<path class="st4" d="M385.4,140.8c-4.6,3.8-21.4,22.3-32.1,42.4c-5.4,10-10.2,21.6-13.7,34.6c-3.5,13-5.6,27.5-5.6,43.3
			c0,2.1,0,4.3,0.1,6.5l25-0.9c-0.1-1.9-0.1-3.7-0.1-5.6c0-18.1,3.2-33.8,8.1-47.4c3.6-10.2,8.2-19.1,13-26.9
			c7.2-11.6,14.9-20.3,20.7-26.1c2.9-2.9,5.4-5,7-6.4c0.8-0.7,1.5-1.2,1.9-1.5c0.2-0.2,0.3-0.3,0.4-0.3l0.1-0.1l0,0l-2.2-3l2.2,3
			l0,0l-2.2-3l2.2,3l-4.7-6.5l4.7,6.5l0,0l-4.7-6.5l4.7,6.5l0,0l-7.1-9.8l7.1,9.8l0,0l-7.1-9.8l7.1,9.8l17-12.2l-18.8-9.2
			c-0.5-0.3-5.3-2.6-13.4-4.8c-8-2.3-19.3-4.5-32.7-4.5c-10.3,0-21.8,1.3-33.9,5c-12.1,3.7-24.9,9.6-37.5,18.8
			c-14.8,10.7-25.8,23.8-34,37.2c-6.1,10-10.7,20.3-14.1,29.9c-5.1,14.5-7.6,27.8-8.9,37.6c-1.3,9.8,11.4,8.1,6.2,14.4l17.5,2h0
			h-11.9l11.9,0v0h-11.9l11.9,0l0,0c0-0.2,0-4.7,0.9-11.7c1.2-10.5,4.3-26.8,11.5-43.3c3.6-8.3,8.1-16.7,14-24.5
			c5.8-7.8,12.9-15.1,21.5-21.4c10.4-7.5,20.5-12.2,30-15.1c9.6-2.9,18.6-3.9,26.7-3.9c10.6,0,19.7,1.8,25.9,3.6
			c3.1,0.9,5.6,1.8,7.2,2.4c0.8,0.3,1.4,0.6,1.7,0.7c0.2,0.1,0.3,0.1,0.3,0.2l0,0l2.8-5.9l-2.9,5.9l0.1,0l2.8-5.9l-2.9,5.9l5.5-11.2
			"/>
	</g>
	<path class="st5" d="M334,261.1c-0.5,2.1,0,4.3,0.1,6.5l25-0.9c-0.1-1.9-0.1-3.7-0.1-5.6c0-18.1,3.2-33.8,8.1-47.4
		c3.6-10.2,8.2-19.1,13-26.9c7.2-11.6,14.9-20.3,20.7-26.1c2.9-2.9,5.4-5,7-6.4c0.8-0.7,1.5-1.2,1.9-1.5c0.2-0.2,0.3-0.3,0.4-0.3
		l0.1-0.1l0,0l-2.2-3l2.2,3l0,0l-2.2-3l2.2,3l-4.7-6.5l4.7,6.5l0,0l-4.7-6.5l4.7,6.5l0,0l-7.1-9.8l7.1,9.8l0,0l-7.1-9.8l7.1,9.8
		l17-12.2C427.1,140.2,352.8,176.9,334,261.1z"/>
	<g>
		<g>
			<path class="st6" d="M616.3,255.5c-1.1,0-1.7-0.2-2.3-0.3c-0.4-0.1-0.7-0.3-1.2-0.5c-0.6-0.4-1.4-1-2.5-2.1c-1-1-2.3-2.4-3.8-4.1
				l0,0c-1.4-1.6-3.1-3.6-5.1-5.6c-1.5-1.5-3.2-3.1-5.1-4.6c-2.9-2.2-6.4-4.4-10.5-5.8c-4.1-1.5-8.8-2.3-13.7-2.3
				c-4.4,0-8.6,0.7-12.3,1.9c-2.8,0.9-5.4,2.1-7.7,3.4c-3.4,2-6.3,4.4-8.6,6.7c-2.3,2.3-4.2,4.5-5.9,6.3c-1.3,1.5-2.5,2.8-3.4,3.8
				c-0.7,0.7-1.4,1.3-1.9,1.7c-0.8,0.6-1.4,0.9-1.9,1.1c-0.6,0.2-1.2,0.4-2.5,0.4c-1.1,0-1.8-0.1-2.3-0.3c-0.4-0.1-0.7-0.3-1.2-0.5
				c-0.6-0.4-1.4-1-2.5-2c-1-1-2.3-2.5-3.8-4.2c-1.4-1.6-3.1-3.6-5.1-5.6c-1.5-1.5-3.2-3.1-5.1-4.6c-2.9-2.2-6.4-4.4-10.5-5.8
				c-4.1-1.5-8.8-2.3-13.7-2.3c-4.4,0-8.6,0.7-12.3,1.9c-2.8,0.9-5.4,2.1-7.7,3.4c-3.4,2-6.3,4.4-8.6,6.7c-2.3,2.3-4.2,4.5-5.9,6.3
				c-1.3,1.5-2.5,2.8-3.4,3.8c-0.7,0.7-1.4,1.3-1.9,1.7c-0.8,0.6-1.4,0.9-1.9,1.1c-0.6,0.2-1.2,0.4-2.5,0.4c-1.1,0-1.8-0.1-2.3-0.3
				c-0.4-0.1-0.7-0.3-1.2-0.5c-0.6-0.4-1.4-1-2.5-2c-1-1-2.3-2.5-3.8-4.2c-1.4-1.6-3.1-3.6-5.1-5.6c-1.5-1.5-3.2-3.1-5.1-4.6
				c-2.9-2.2-6.4-4.4-10.5-5.8c-4.1-1.5-8.8-2.3-13.7-2.3c-4.4,0-8.6,0.7-12.3,1.9c-2.8,0.9-5.4,2.1-7.7,3.4c-3.4,2-6.3,4.4-8.6,6.7
				c-2.3,2.3-4.2,4.5-5.9,6.3c-1.3,1.5-2.5,2.8-3.4,3.8c-0.7,0.7-1.4,1.3-1.9,1.7c-0.8,0.6-1.3,0.9-1.9,1.1
				c-0.6,0.2-1.2,0.4-2.5,0.4v25c3.5,0,6.9-0.5,10-1.5c2.3-0.8,4.5-1.8,6.4-2.9c2.9-1.7,5.2-3.7,7.1-5.7c2-1.9,3.6-3.8,5.1-5.5
				c1.4-1.6,2.7-3.1,4-4.4c0.9-0.9,1.8-1.7,2.7-2.4c1.3-1,2.5-1.7,3.8-2.2c1.4-0.5,2.9-0.8,5.2-0.8c2,0,3.5,0.3,4.7,0.7
				c0.9,0.3,1.8,0.7,2.6,1.2c1.3,0.7,2.5,1.7,3.9,3.1c1.4,1.3,2.8,3,4.4,4.8c1.3,1.5,2.8,3.2,4.4,4.9c1.3,1.3,2.6,2.6,4.3,3.9
				c2.4,1.9,5.3,3.7,8.8,5c3.4,1.3,7.2,1.9,11.2,1.9c3.5,0,6.9-0.5,10-1.5c2.3-0.8,4.5-1.8,6.4-2.9c2.9-1.7,5.2-3.7,7.1-5.7
				c2-1.9,3.6-3.8,5.1-5.5c1.4-1.6,2.7-3.1,4-4.4c0.9-0.9,1.8-1.7,2.7-2.4c1.3-1,2.5-1.7,3.8-2.2c1.4-0.5,2.9-0.8,5.2-0.8
				c2,0,3.5,0.3,4.7,0.7c0.9,0.3,1.8,0.7,2.6,1.2c1.3,0.7,2.5,1.7,3.9,3.1c1.4,1.3,2.8,3,4.4,4.8c1.3,1.5,2.8,3.2,4.4,4.9
				c1.3,1.3,2.6,2.6,4.3,3.9c2.4,1.9,5.3,3.7,8.8,5c3.4,1.3,7.2,1.9,11.2,1.9c3.5,0,6.9-0.5,10-1.5c2.3-0.8,4.5-1.8,6.4-2.9
				c2.9-1.7,5.2-3.7,7.1-5.7c2-1.9,3.6-3.8,5.1-5.5c1.4-1.6,2.7-3.1,4-4.4c0.9-0.9,1.8-1.7,2.7-2.4c1.3-1,2.5-1.7,3.8-2.2
				c1.4-0.5,2.9-0.8,5.2-0.8c2,0,3.5,0.3,4.7,0.7c0.9,0.3,1.8,0.7,2.6,1.2c1.3,0.7,2.5,1.7,3.9,3.1c1.4,1.3,2.8,3,4.4,4.8l0,0
				c1.3,1.5,2.7,3.1,4.4,4.8c1.2,1.3,2.6,2.6,4.2,3.8c2.4,1.9,5.3,3.7,8.7,5c3.4,1.3,7.2,2,11,2L616.3,255.5L616.3,255.5z"/>
		</g>
		<g>
			<path class="st6" d="M351.7,255.5c-1.1,0-1.7-0.2-2.3-0.3c-0.4-0.1-0.7-0.3-1.2-0.5c-0.6-0.4-1.4-1-2.5-2.1c-1-1-2.3-2.4-3.8-4.1
				l0,0c-1.4-1.6-3.1-3.6-5.1-5.6c-1.5-1.5-3.2-3.1-5.1-4.6c-2.9-2.2-6.4-4.4-10.5-5.8c-4.1-1.5-8.8-2.3-13.7-2.3
				c-4.4,0-8.6,0.7-12.3,1.9c-2.8,0.9-5.4,2.1-7.7,3.4c-3.4,2-6.3,4.4-8.6,6.7c-2.3,2.3-4.2,4.5-5.9,6.3c-1.3,1.5-2.5,2.8-3.4,3.8
				c-0.7,0.7-1.4,1.3-1.9,1.7c-0.8,0.6-1.4,0.9-1.9,1.1c-0.6,0.2-1.2,0.4-2.5,0.4c-1.1,0-1.8-0.1-2.3-0.3c-0.4-0.1-0.7-0.3-1.2-0.5
				c-0.6-0.4-1.4-1-2.5-2c-1-1-2.3-2.5-3.8-4.2c-1.4-1.6-3.1-3.6-5.1-5.6c-1.5-1.5-3.2-3.1-5.1-4.6c-2.9-2.2-6.4-4.4-10.5-5.8
				c-4.1-1.5-8.8-2.3-13.7-2.3c-4.4,0-8.6,0.7-12.3,1.9c-2.8,0.9-5.4,2.1-7.7,3.4c-3.4,2-6.3,4.4-8.6,6.7c-2.3,2.3-4.2,4.5-5.9,6.3
				c-1.3,1.5-2.5,2.8-3.4,3.8c-0.7,0.7-1.4,1.3-1.9,1.7c-0.8,0.6-1.4,0.9-1.9,1.1c-0.6,0.2-1.2,0.4-2.5,0.4c-1.1,0-1.8-0.1-2.3-0.3
				c-0.4-0.1-0.7-0.3-1.2-0.5c-0.6-0.4-1.4-1-2.5-2c-1-1-2.3-2.5-3.8-4.2c-1.4-1.6-3.1-3.6-5.1-5.6c-1.5-1.5-3.2-3.1-5.1-4.6
				c-2.9-2.2-6.4-4.4-10.5-5.8c-4.1-1.5-8.8-2.3-13.7-2.3c-4.4,0-8.6,0.7-12.3,1.9c-2.8,0.9-5.4,2.1-7.7,3.4c-3.4,2-6.3,4.4-8.6,6.7
				c-2.3,2.3-4.2,4.5-5.9,6.3c-1.3,1.5-2.5,2.8-3.4,3.8c-0.7,0.7-1.4,1.3-1.9,1.7c-0.8,0.6-1.3,0.9-1.9,1.1
				c-0.6,0.2-1.2,0.4-2.5,0.4v25c3.5,0,6.9-0.5,10-1.5c2.3-0.8,4.5-1.8,6.4-2.9c2.9-1.7,5.2-3.7,7.1-5.7c2-1.9,3.6-3.8,5.1-5.5
				c1.4-1.6,2.7-3.1,4-4.4c0.9-0.9,1.8-1.7,2.7-2.4c1.3-1,2.5-1.7,3.8-2.2c1.4-0.5,2.9-0.8,5.2-0.8c2,0,3.5,0.3,4.7,0.7
				c0.9,0.3,1.8,0.7,2.6,1.2c1.3,0.7,2.5,1.7,3.9,3.1c1.4,1.3,2.8,3,4.4,4.8c1.3,1.5,2.8,3.2,4.4,4.9c1.3,1.3,2.6,2.6,4.3,3.9
				c2.4,1.9,5.3,3.7,8.8,5c3.4,1.3,7.2,1.9,11.2,1.9c3.5,0,6.9-0.5,10-1.5c2.3-0.8,4.5-1.8,6.4-2.9c2.9-1.7,5.2-3.7,7.1-5.7
				c2-1.9,3.6-3.8,5.1-5.5c1.4-1.6,2.7-3.1,4-4.4c0.9-0.9,1.8-1.7,2.7-2.4c1.3-1,2.5-1.7,3.8-2.2c1.4-0.5,2.9-0.8,5.2-0.8
				c2,0,3.5,0.3,4.7,0.7c0.9,0.3,1.8,0.7,2.6,1.2c1.3,0.7,2.5,1.7,3.9,3.1c1.4,1.3,2.8,3,4.4,4.8c1.3,1.5,2.8,3.2,4.4,4.9
				c1.3,1.3,2.6,2.6,4.3,3.9c2.4,1.9,5.3,3.7,8.8,5c3.4,1.3,7.2,1.9,11.2,1.9c3.5,0,6.9-0.5,10-1.5c2.3-0.8,4.5-1.8,6.4-2.9
				c2.9-1.7,5.2-3.7,7.1-5.7c2-1.9,3.6-3.8,5.1-5.5c1.4-1.6,2.7-3.1,4-4.4c0.9-0.9,1.8-1.7,2.7-2.4c1.3-1,2.5-1.7,3.8-2.2
				c1.4-0.5,2.9-0.8,5.2-0.8c2,0,3.5,0.3,4.7,0.7c0.9,0.3,1.8,0.7,2.6,1.2c1.3,0.7,2.5,1.7,3.9,3.1c1.4,1.3,2.8,3,4.4,4.8l0,0
				c1.3,1.5,2.7,3.1,4.4,4.8c1.2,1.3,2.6,2.6,4.2,3.8c2.4,1.9,5.3,3.7,8.7,5c3.4,1.3,7.2,2,11,2L351.7,255.5L351.7,255.5z"/>
		</g>
		<g>
			<path class="st7" d="M210,258.1c0,0-1.7,1.5-2.7,2.4c-1.2,1.2-2.5,2.7-4,4.4c-1.5,1.7-3.1,3.6-5.1,5.5c-1.9,1.9-4.3,3.9-7.1,5.7
				c-1.9,1.2-4.1,2.2-6.4,2.9c-3.1,1-6.5,1.5-10,1.5c-3.9,0-7.8-0.7-11.2-1.9c-3.4-1.3-6.4-3.1-8.8-5c-1.6-1.3-3-2.6-4.3-3.9
				c-1.7-1.7-3.1-3.4-4.4-4.9c-1.6-1.8-3.1-3.5-4.4-4.8c-1.4-1.3-5-4-3.9-3.1C177.2,289.4,210,258.1,210,258.1z"/>
		</g>
	</g>
	<g>
		<path class="st7" d="M298.5,258.1c0,0-1.7,1.5-2.7,2.4c-1.2,1.2-2.5,2.7-4,4.4c-1.5,1.7-3.1,3.6-5,5.5c-1.9,1.9-4.2,3.9-7.1,5.7
			c-1.9,1.2-4,2.2-6.4,2.9c-3.1,1-6.5,1.5-10,1.5c-3.9,0-7.7-0.7-11.1-1.9c-3.4-1.3-6.3-3.1-8.7-5c-1.6-1.3-3-2.6-4.2-3.9
			c-1.7-1.7-3.1-3.4-4.4-4.9c-1.6-1.8-3-3.5-4.4-4.8c-1.4-1.3-5-4-3.9-3.1C265.8,289.4,298.5,258.1,298.5,258.1z"/>
	</g>
	<g>
		<path class="st7" d="M386,258.1c0,0-1.7,1.5-2.6,2.4c-1.2,1.2-2.5,2.7-3.9,4.4c-1.5,1.7-3.1,3.6-5,5.5c-1.9,1.9-4.2,3.9-7,5.7
			c-1.9,1.2-4,2.2-6.3,2.9c-3.1,1-6.4,1.5-9.9,1.5c-3.9,0-7.6-0.7-11-1.9c-3.4-1.3-6.3-3.1-8.6-5c-1.6-1.3-3-2.6-4.2-3.9
			c-1.6-1.7-3-3.4-4.4-4.9c-1.6-1.8-3-3.5-4.4-4.8c-1.3-1.3-4.9-4-3.8-3.1C353.7,289.4,386,258.1,386,258.1z"/>
	</g>
	<g>
		<path class="st7" d="M474.6,258.1c0,0-1.7,1.5-2.6,2.4c-1.2,1.2-2.5,2.7-3.9,4.4c-1.5,1.7-3.1,3.6-5,5.5c-1.9,1.9-4.2,3.9-7.1,5.7
			c-1.9,1.2-4,2.2-6.4,2.9c-3.1,1-6.5,1.5-9.9,1.5c-3.9,0-7.7-0.7-11.1-1.9c-3.4-1.3-6.3-3.1-8.7-5c-1.6-1.3-3-2.6-4.2-3.9
			c-1.7-1.7-3.1-3.4-4.4-4.9c-1.6-1.8-3-3.5-4.4-4.8c-1.4-1.3-5-4-3.9-3.1C442.1,289.4,474.6,258.1,474.6,258.1z"/>
	</g>
	<g>
		<path class="st7" d="M563,258.1c0,0-1.7,1.5-2.6,2.4c-1.2,1.2-2.5,2.7-3.9,4.4c-1.5,1.7-3.1,3.6-5,5.5c-1.9,1.9-4.2,3.9-7.1,5.7
			c-1.9,1.2-4,2.2-6.4,2.9c-3.1,1-6.5,1.5-9.9,1.5c-3.9,0-7.7-0.7-11.1-1.9c-3.4-1.3-6.3-3.1-8.7-5c-1.6-1.3-3-2.6-4.2-3.9
			c-1.7-1.7-3.1-3.4-4.4-4.9c-1.6-1.8-3-3.5-4.4-4.8c-1.4-1.3-5-4-3.9-3.1C530.4,289.4,563,258.1,563,258.1z"/>
	</g>
	<g>
		<path class="st8" d="M124.5,340h38.4c0.2,0.9,0.4,1.9,0.5,3.2c0.1,1.2,0.2,2.5,0.2,3.7c0,5-0.8,9.8-2.3,14.2
			c-1.5,4.4-3.9,8.4-7.2,11.9c-3.5,3.7-7.7,6.6-12.6,8.6c-4.9,2-10.5,3.1-16.7,3.1c-5.7,0-11-1-16.1-3.1s-9.4-4.9-13.1-8.5
			c-3.7-3.6-6.7-8-8.9-13c-2.2-5-3.3-10.4-3.3-16.4s1.1-11.4,3.3-16.4c2.2-5,5.1-9.3,8.9-13c3.7-3.6,8.1-6.5,13.1-8.5
			c5-2,10.4-3.1,16.1-3.1c6.3,0,12,1.1,17,3.3c5,2.2,9.3,5.2,12.9,9.1l-10.2,10c-2.6-2.7-5.4-4.8-8.5-6.2c-3.1-1.4-6.9-2.1-11.3-2.1
			c-3.6,0-7,0.6-10.2,1.9c-3.2,1.3-6,3.1-8.4,5.4c-2.4,2.3-4.3,5.2-5.7,8.5c-1.4,3.3-2.1,7-2.1,11.1c0,4.1,0.7,7.8,2.1,11.1
			c1.4,3.3,3.4,6.1,5.8,8.5c2.4,2.3,5.3,4.1,8.5,5.4c3.2,1.3,6.6,1.9,10.3,1.9c4.2,0,7.7-0.6,10.6-1.8c2.9-1.2,5.3-2.8,7.4-4.6
			c1.5-1.3,2.7-3,3.8-5c1.1-2,1.9-4.2,2.5-6.7h-24.6V340z"/>
		<path class="st8" d="M175.9,304.6h26.5c6.2,0,11.8,0.9,16.7,2.8c5,1.9,9.2,4.6,12.7,8c3.5,3.5,6.2,7.6,8,12.4
			c1.9,4.8,2.8,10.1,2.8,15.9c0,5.8-0.9,11.2-2.8,16c-1.9,4.8-4.5,8.9-8,12.4c-3.5,3.4-7.7,6.1-12.7,8c-5,1.9-10.5,2.8-16.7,2.8
			h-26.5V304.6z M201.8,369c4.3,0,8.1-0.6,11.4-1.8c3.3-1.2,6-2.9,8.2-5.1s3.8-4.8,4.9-7.9c1.1-3.1,1.6-6.5,1.6-10.3
			c0-3.8-0.5-7.2-1.6-10.3c-1.1-3.1-2.7-5.7-4.9-7.9s-4.9-3.9-8.2-5.1s-7.1-1.8-11.4-1.8h-11V369H201.8z"/>
		<path class="st8" d="M291.8,340h38.4c0.2,0.9,0.4,1.9,0.5,3.2c0.1,1.2,0.2,2.5,0.2,3.7c0,5-0.8,9.8-2.3,14.2
			c-1.5,4.4-3.9,8.4-7.2,11.9c-3.5,3.7-7.7,6.6-12.6,8.6c-4.9,2-10.5,3.1-16.7,3.1c-5.7,0-11-1-16.1-3.1s-9.4-4.9-13.1-8.5
			c-3.7-3.6-6.7-8-8.9-13c-2.2-5-3.3-10.4-3.3-16.4s1.1-11.4,3.3-16.4c2.2-5,5.1-9.3,8.9-13c3.7-3.6,8.1-6.5,13.1-8.5
			c5-2,10.4-3.1,16.1-3.1c6.3,0,12,1.1,17,3.3c5,2.2,9.3,5.2,12.9,9.1l-10.2,10c-2.6-2.7-5.4-4.8-8.5-6.2c-3.1-1.4-6.9-2.1-11.3-2.1
			c-3.6,0-7,0.6-10.2,1.9c-3.2,1.3-6,3.1-8.4,5.4c-2.4,2.3-4.3,5.2-5.7,8.5c-1.4,3.3-2.1,7-2.1,11.1c0,4.1,0.7,7.8,2.1,11.1
			c1.4,3.3,3.4,6.1,5.8,8.5c2.4,2.3,5.3,4.1,8.5,5.4c3.2,1.3,6.6,1.9,10.3,1.9c4.2,0,7.7-0.6,10.6-1.8c2.9-1.2,5.3-2.8,7.4-4.6
			c1.5-1.3,2.7-3,3.8-5c1.1-2,1.9-4.2,2.5-6.7h-24.6V340z"/>
		<path class="st8" d="M367.2,304.6h17.2l31.5,52.5h0.9l-0.9-15.1v-37.4h14.7V383H415l-33.3-55.5h-0.9l0.9,15.1V383h-14.5V304.6z"/>
		<path class="st8" d="M476,377.3h-0.9c-1.7,2-3.7,3.8-6.1,5.2c-2.4,1.5-5.4,2.2-9.1,2.2c-2.8,0-5.4-0.5-7.8-1.4
			c-2.4-0.9-4.6-2.2-6.4-3.8c-1.8-1.6-3.2-3.5-4.3-5.8c-1-2.3-1.5-4.7-1.5-7.4c0-2.8,0.5-5.3,1.6-7.5c1.1-2.2,2.6-4.1,4.6-5.7
			c2-1.6,4.3-2.8,6.9-3.7c2.7-0.8,5.6-1.3,8.7-1.3c3.5,0,6.4,0.3,8.6,0.8c2.3,0.5,4.1,1.1,5.6,1.7v-1.6c0-2.8-1.1-5.2-3.4-7.1
			c-2.3-1.9-5.1-2.8-8.4-2.8c-5,0-9.2,2.1-12.6,6.2l-10.4-7.1c5.7-7.1,13.5-10.7,23.3-10.7c8.3,0,14.7,2,19,5.9
			c4.4,3.9,6.6,9.7,6.6,17.3V383H476V377.3z M476,361.2c-1.7-0.8-3.4-1.4-5.2-1.9c-1.8-0.5-3.7-0.7-5.9-0.7c-3.4,0-6.1,0.7-7.9,2.2
			c-1.9,1.5-2.8,3.3-2.8,5.5c0,2.2,0.9,3.9,2.7,5.3c1.8,1.3,3.8,2,6.2,2c1.9,0,3.6-0.3,5.2-1c1.6-0.7,3-1.6,4.1-2.7
			c1.1-1.1,2-2.4,2.6-3.9C475.7,364.3,476,362.8,476,361.2z"/>
		<path class="st8" d="M506.3,341.6h-9.4v-12.3h9.4V313h14.3v16.4h13.1v12.3h-13.1V363c0,1.3,0.1,2.5,0.4,3.6c0.3,1.1,0.7,2,1.5,2.8
			c1,1.2,2.5,1.8,4.4,1.8c1.2,0,2.2-0.1,3-0.4c0.7-0.3,1.4-0.6,2.1-1l4,12.6c-1.7,0.8-3.5,1.4-5.4,1.8c-1.9,0.4-4.1,0.6-6.4,0.6
			c-2.7,0-5.1-0.4-7.3-1.3c-2.2-0.9-4-2-5.4-3.5c-3.4-3.3-5.1-8.1-5.1-14.3V341.6z"/>
		<path class="st8" d="M576.2,377.3h-0.9c-1.7,2-3.7,3.8-6.1,5.2c-2.4,1.5-5.4,2.2-9.1,2.2c-2.8,0-5.4-0.5-7.8-1.4
			c-2.4-0.9-4.6-2.2-6.4-3.8c-1.8-1.6-3.2-3.5-4.3-5.8c-1-2.3-1.5-4.7-1.5-7.4c0-2.8,0.5-5.3,1.6-7.5c1.1-2.2,2.6-4.1,4.6-5.7
			c2-1.6,4.3-2.8,6.9-3.7c2.7-0.8,5.6-1.3,8.7-1.3c3.5,0,6.4,0.3,8.6,0.8c2.3,0.5,4.1,1.1,5.6,1.7v-1.6c0-2.8-1.1-5.2-3.4-7.1
			c-2.3-1.9-5.1-2.8-8.4-2.8c-5,0-9.2,2.1-12.6,6.2l-10.4-7.1c5.7-7.1,13.5-10.7,23.3-10.7c8.3,0,14.7,2,19,5.9
			c4.4,3.9,6.6,9.7,6.6,17.3V383h-14.1V377.3z M576.2,361.2c-1.7-0.8-3.4-1.4-5.2-1.9c-1.8-0.5-3.7-0.7-5.9-0.7
			c-3.4,0-6.1,0.7-7.9,2.2c-1.9,1.5-2.8,3.3-2.8,5.5c0,2.2,0.9,3.9,2.7,5.3c1.8,1.3,3.8,2,6.2,2c1.9,0,3.6-0.3,5.2-1
			c1.6-0.7,3-1.6,4.1-2.7c1.1-1.1,2-2.4,2.6-3.9C575.8,364.3,576.2,362.8,576.2,361.2z"/>
		<path class="st8" d="M601.6,383v-78.3H616V383H601.6z"/>
	</g>
</g>
</svg>
